<?xml version="1.0" encoding="utf-8"?>
<!-- Generator: Adobe Illustrator 16.0.0, SVG Export Plug-In . SVG Version: 6.00 Build 0)  -->
<!DOCTYPE svg PUBLIC "-//W3C//DTD SVG 1.1//EN" "http://www.w3.org/Graphics/SVG/1.1/DTD/svg11.dtd">
<svg version="1.1" id="katman_1" xmlns="http://www.w3.org/2000/svg" xmlns:xlink="http://www.w3.org/1999/xlink" x="0px" y="0px"
	 width="463.092px" height="179.417px" viewBox="0 0 463.092 179.417" enable-background="new 0 0 463.092 179.417"
	 xml:space="preserve">
<g>
	<g>
		<rect x="287.007" y="41.908" fill="#7C63A8" width="10.136" height="137.509"/>
		<rect x="302.093" y="21.738" fill="#7C63A8" width="10.136" height="157.679"/>
		<rect x="317.18" y="107.906" fill="#7C63A8" width="10.136" height="71.511"/>
		<rect x="332.266" y="64.824" fill="#7C63A8" width="10.136" height="114.593"/>
		<rect x="347.354" y="129.447" fill="#7C63A8" width="10.136" height="49.97"/>
		<rect x="422.783" y="88.871" fill="#7C63A8" width="10.138" height="90.546"/>
		<rect x="407.699" y="75.589" fill="#7C63A8" width="10.135" height="103.827"/>
		<rect x="392.611" y="132.328" fill="#7C63A8" width="10.136" height="47.089"/>
		<rect x="377.525" y="103.96" fill="#7C63A8" width="10.135" height="75.456"/>
		<rect x="362.44" y="146.513" fill="#7C63A8" width="10.136" height="32.903"/>
		<rect x="437.871" y="67.453" fill="#7C63A8" width="10.137" height="111.963"/>
		<rect x="452.957" fill="#7C63A8" width="10.135" height="179.417"/>
		<rect y="101.183" fill="#7C63A8" width="10.134" height="78.233"/>
		<rect x="45.257" y="105.693" fill="#7C63A8" width="10.138" height="73.724"/>
		<rect x="30.172" y="61.275" fill="#7C63A8" width="10.136" height="118.141"/>
		<rect x="15.084" y="127.902" fill="#7C63A8" width="10.137" height="51.515"/>
		<rect x="105.604" y="88.871" fill="#7C63A8" width="10.137" height="90.546"/>
		<rect x="90.518" y="75.589" fill="#7C63A8" width="10.137" height="103.827"/>
		<rect x="75.431" y="132.328" fill="#7C63A8" width="10.136" height="47.089"/>
		<rect x="60.344" y="103.96" fill="#7C63A8" width="10.137" height="75.456"/>
		<rect x="120.689" y="67.453" fill="#7C63A8" width="10.137" height="111.963"/>
		<rect x="135.776" y="150.988" fill="#7C63A8" width="10.135" height="28.429"/>
		<rect x="150.863" y="132.328" fill="#7C63A8" width="10.135" height="47.089"/>
		<rect x="181.037" y="64.219" fill="#7C63A8" width="10.135" height="115.197"/>
		<rect x="196.122" y="47.326" fill="#7C63A8" width="10.137" height="132.091"/>
		<rect x="211.209" y="119.509" fill="#7C63A8" width="10.137" height="59.907"/>
		<rect x="226.296" y="83.42" fill="#7C63A8" width="10.135" height="95.996"/>
		<rect x="165.95" y="36.976" fill="#7C63A8" width="10.136" height="142.44"/>
		<rect x="241.383" y="113.193" fill="#7C63A8" width="10.135" height="66.224"/>
		<rect x="256.468" y="150.541" fill="#7C63A8" width="10.139" height="28.876"/>
		<rect x="271.557" y="160.402" fill="#7C63A8" width="10.137" height="19.015"/>
	</g>
</g>
</svg>
