<?xml version="1.0" encoding="utf-8"?>
<!-- Generator: Adobe Illustrator 16.0.0, SVG Export Plug-In . SVG Version: 6.00 Build 0)  -->
<!DOCTYPE svg PUBLIC "-//W3C//DTD SVG 1.1//EN" "http://www.w3.org/Graphics/SVG/1.1/DTD/svg11.dtd">
<svg version="1.1" id="katman_1" xmlns="http://www.w3.org/2000/svg" xmlns:xlink="http://www.w3.org/1999/xlink" x="0px" y="0px"
	 width="462.729px" height="179.417px" viewBox="0 0 462.729 179.417" enable-background="new 0 0 462.729 179.417"
	 xml:space="preserve">
<g>
	<g>
		<rect x="452.594" y="41.908" fill="#61B55B" width="10.135" height="137.509"/>
		<rect x="437.508" y="21.738" fill="#61B55B" width="10.137" height="157.679"/>
		<rect x="422.423" y="107.906" fill="#61B55B" width="10.135" height="71.511"/>
		<rect x="407.337" y="64.824" fill="#61B55B" width="10.136" height="114.593"/>
		<rect x="392.25" y="129.447" fill="#61B55B" width="10.135" height="49.97"/>
		<rect x="316.818" y="88.871" fill="#61B55B" width="10.138" height="90.546"/>
		<rect x="331.905" y="75.589" fill="#61B55B" width="10.135" height="103.827"/>
		<rect x="346.992" y="132.328" fill="#61B55B" width="10.136" height="47.089"/>
		<rect x="362.079" y="103.96" fill="#61B55B" width="10.135" height="75.456"/>
		<rect x="377.163" y="146.513" fill="#61B55B" width="10.136" height="32.903"/>
		<rect x="301.731" y="67.453" fill="#61B55B" width="10.137" height="111.963"/>
		<rect x="286.647" fill="#61B55B" width="10.135" height="179.417"/>
		<rect x="271.56" y="101.183" fill="#61B55B" width="10.134" height="78.233"/>
		<rect x="226.299" y="105.693" fill="#61B55B" width="10.138" height="73.724"/>
		<rect x="241.386" y="61.275" fill="#61B55B" width="10.136" height="118.141"/>
		<rect x="256.473" y="127.902" fill="#61B55B" width="10.137" height="51.515"/>
		<rect x="165.953" y="88.871" fill="#61B55B" width="10.137" height="90.546"/>
		<rect x="181.039" y="75.589" fill="#61B55B" width="10.137" height="103.827"/>
		<rect x="196.127" y="132.328" fill="#61B55B" width="10.136" height="47.089"/>
		<rect x="211.213" y="103.96" fill="#61B55B" width="10.137" height="75.456"/>
		<rect x="150.867" y="67.453" fill="#61B55B" width="10.137" height="111.963"/>
		<rect x="135.782" y="150.988" fill="#61B55B" width="10.135" height="28.429"/>
		<rect x="120.695" y="132.328" fill="#61B55B" width="10.135" height="47.089"/>
		<rect x="90.521" y="64.219" fill="#61B55B" width="10.135" height="115.197"/>
		<rect x="75.435" y="47.326" fill="#61B55B" width="10.137" height="132.091"/>
		<rect x="60.348" y="119.509" fill="#61B55B" width="10.137" height="59.907"/>
		<rect x="45.263" y="83.42" fill="#61B55B" width="10.135" height="95.996"/>
		<rect x="105.607" y="36.976" fill="#61B55B" width="10.136" height="142.44"/>
		<rect x="30.176" y="113.193" fill="#61B55B" width="10.135" height="66.224"/>
		<rect x="15.087" y="150.541" fill="#61B55B" width="10.139" height="28.876"/>
		<rect y="160.402" fill="#61B55B" width="10.137" height="19.015"/>
	</g>
</g>
</svg>
