<?xml version="1.0" encoding="utf-8"?>
<!-- Generator: Adobe Illustrator 16.0.0, SVG Export Plug-In . SVG Version: 6.00 Build 0)  -->
<!DOCTYPE svg PUBLIC "-//W3C//DTD SVG 1.1//EN" "http://www.w3.org/Graphics/SVG/1.1/DTD/svg11.dtd">
<svg version="1.1" id="katman_1" xmlns="http://www.w3.org/2000/svg" xmlns:xlink="http://www.w3.org/1999/xlink" x="0px" y="0px"
	 width="291.377px" height="40.958px" viewBox="0 0 291.377 40.958" enable-background="new 0 0 291.377 40.958"
	 xml:space="preserve">
<g opacity="0.7">
	<rect y="9.567" fill="#FFFFFF" width="6.382" height="31.391"/>
	<rect x="9.499" y="4.962" fill="#FFFFFF" width="6.383" height="35.995"/>
	<rect x="19" y="24.633" fill="#FFFFFF" width="6.382" height="16.324"/>
	<rect x="28.499" y="14.798" fill="#FFFFFF" width="6.383" height="26.159"/>
	<rect x="38" y="29.551" fill="#FFFFFF" width="6.382" height="11.406"/>
	<rect x="85.497" y="20.288" fill="#FFFFFF" width="6.384" height="20.67"/>
	<rect x="75.999" y="17.256" fill="#FFFFFF" width="6.382" height="23.702"/>
	<rect x="66.498" y="30.208" fill="#FFFFFF" width="6.383" height="10.749"/>
	<rect x="56.999" y="23.733" fill="#FFFFFF" width="6.382" height="17.225"/>
	<rect x="47.5" y="33.447" fill="#FFFFFF" width="6.382" height="7.511"/>
	<rect x="94.998" y="15.398" fill="#FFFFFF" width="6.383" height="25.559"/>
	<rect x="104.497" fill="#FFFFFF" width="6.382" height="40.958"/>
	<rect x="113.998" y="23.098" fill="#FFFFFF" width="6.382" height="17.859"/>
	<rect x="142.496" y="24.127" fill="#FFFFFF" width="6.384" height="16.83"/>
	<rect x="132.997" y="13.988" fill="#FFFFFF" width="6.383" height="26.969"/>
	<rect x="123.497" y="29.198" fill="#FFFFFF" width="6.383" height="11.76"/>
	<rect x="180.496" y="20.288" fill="#FFFFFF" width="6.383" height="20.67"/>
	<rect x="170.996" y="17.256" fill="#FFFFFF" width="6.383" height="23.702"/>
	<rect x="161.496" y="30.208" fill="#FFFFFF" width="6.383" height="10.749"/>
	<rect x="151.996" y="23.733" fill="#FFFFFF" width="6.383" height="17.225"/>
	<rect x="189.995" y="15.398" fill="#FFFFFF" width="6.383" height="25.559"/>
	<rect x="199.495" y="34.468" fill="#FFFFFF" width="6.382" height="6.489"/>
	<rect x="208.995" y="30.208" fill="#FFFFFF" width="6.382" height="10.749"/>
	<rect x="227.995" y="14.66" fill="#FFFFFF" width="6.382" height="26.297"/>
	<rect x="237.494" y="10.804" fill="#FFFFFF" width="6.383" height="30.154"/>
	<rect x="246.994" y="27.282" fill="#FFFFFF" width="6.383" height="13.676"/>
	<rect x="256.494" y="19.043" fill="#FFFFFF" width="6.382" height="21.914"/>
	<rect x="218.495" y="8.441" fill="#FFFFFF" width="6.383" height="32.517"/>
	<rect x="265.994" y="25.84" fill="#FFFFFF" width="6.382" height="15.117"/>
	<rect x="275.493" y="34.366" fill="#FFFFFF" width="6.384" height="6.592"/>
	<rect x="284.994" y="36.618" fill="#FFFFFF" width="6.383" height="4.34"/>
</g>
</svg>
