<?xml version="1.0" encoding="utf-8"?>
<!-- Generator: Adobe Illustrator 15.0.2, SVG Export Plug-In . SVG Version: 6.00 Build 0)  -->
<!DOCTYPE svg PUBLIC "-//W3C//DTD SVG 1.1//EN" "http://www.w3.org/Graphics/SVG/1.1/DTD/svg11.dtd">
<svg version="1.1" id="Layer_1" xmlns="http://www.w3.org/2000/svg" xmlns:xlink="http://www.w3.org/1999/xlink" x="0px" y="0px"
	 width="600px" height="600px" viewBox="0 0 600 600" enable-background="new 0 0 600 600" xml:space="preserve">
<path fill="navy" d="M335.906,0c38.381,5.029,71.258,15.558,100.133,30.087c-2.354,14.756-4.057,29.372-6.414,45.38
	c-0.578,3.934-3.15,11.051-2.465,14.305c0.696,3.308,9.146,8.914,12.332,11.837c12.699,11.658,25.447,22.621,37.979,33.543
	c19.355-7.445,38.479-15.125,57.218-23.183c22.675,25.177,38.438,57.256,51.302,92.24c-15.833,13.268-33.456,24.747-49.326,37.98
	c1.626,21.886,3.036,43.988,4.439,66.096c18.694,9.089,38.919,16.656,58.203,25.156c-4.245,38.996-14.978,71.505-29.104,100.626
	c-15.43-2.097-30.302-4.136-46.858-6.412c-3.898-0.536-11.706-3.131-14.799-2.467c-3.227,0.689-8.894,9.053-11.837,12.33
	c-11.586,12.896-22.94,25.486-33.541,38.478c7.966,19.821,15.898,39.676,24.172,59.189c-25.33,22.024-55.728,38.983-91.254,50.808
	c-13.482-16.44-25.531-34.319-38.476-51.3c-21.682,1.831-43.747,3.276-66.098,4.438c-9.866,19.236-17.403,40.8-26.636,60.672
	c-38.398-4.351-70.37-15.126-99.145-29.103c2.611-22.052,5.439-43.887,8.879-65.109c-16.535-15.526-34.37-29.753-51.792-44.395
	c-19.94,8.506-40.159,16.731-59.684,25.648c-21.541-25.485-37.359-56.687-49.818-91.254c16.468-14.275,34.553-26.938,51.297-40.938
	c-1.102-22.573-2.65-44.703-4.438-66.591c-19.299-9.147-40.37-16.52-60.178-25.158c4.86-38.383,15.779-70.704,30.09-99.64
	c15.29,1.978,31.005,4.739,46.858,6.907c4.446,0.609,12.199,2.667,15.784,1.972c3.557-0.689,9.345-8.852,12.332-12.331
	c11.476-13.371,22.339-26.28,33.542-38.968c-8.545-19.571-16.802-39.431-25.649-58.699c25.783-21.406,57.316-37.061,91.746-49.82
	c14.443,15.479,25.65,34.197,39.459,50.313c21.97-1.539,44.101-2.922,66.096-4.439C319.692,39.688,326.526,18.569,335.906,0z
	 M191.876,199.771c-22.427,24.827-41.116,60.144-39.46,108.023c1.582,45.765,22.22,76.399,46.859,100.133
	c24.686,23.777,61.413,41.575,108.026,39.462c44.444-2.02,76.611-22.084,100.131-46.861c23.919-25.199,41.388-59.86,39.462-108.022
	c-1.783-44.592-23.098-77.241-46.86-100.131c-23.805-22.932-61.273-42.224-108.025-39.459
	C246.526,155.598,214.46,174.767,191.876,199.771z M291.513,180.041c39.237-2.9,69.003,13.375,89.282,31.566
	c19.95,17.904,37.497,44.603,38.969,81.392c1.541,38.56-12.077,67.999-31.567,88.787c-19.185,20.452-45.034,37.674-80.896,39.461
	c-37.667,1.877-67.764-12.211-89.283-31.57c-20.347-18.308-38.051-45.62-39.459-80.894c-1.654-41.401,12.665-68.488,31.074-89.281
	c8.922-10.078,20.303-19.051,34.036-26.141C257.331,186.302,273.295,181.387,291.513,180.041z M240.215,244.659
	c-11.389,12.044-22.154,30.107-22.198,54.257c-0.083,45.839,33.117,78.425,74.483,81.387c23.879,1.713,44.611-6.021,59.683-19.729
	c13.568-12.338,25.854-29.315,27.622-52.285c2.289-29.709-10.062-51.004-23.183-64.125c-14.062-14.062-34.919-26.527-63.63-24.168
	C270.29,221.857,251.507,232.714,240.215,244.659z"/>
</svg>
