<?xml version="1.0" standalone="no"?>
<!DOCTYPE svg PUBLIC "-//W3C//DTD SVG 20010904//EN"
 "http://www.w3.org/TR/2001/REC-SVG-20010904/DTD/svg10.dtd">
<svg version="1.0" xmlns="http://www.w3.org/2000/svg"
 width="626.000000pt" height="626.000000pt" viewBox="0 0 626.000000 626.000000"
 preserveAspectRatio="xMidYMid meet">
<metadata>
Created by potrace 1.13, written by Peter Selinger 2001-2015
</metadata>
<g transform="translate(0.000000,626.000000) scale(0.100000,-0.100000)"
fill="gray" stroke="none">
<path d="M175 6208 c-59 -21 -112 -68 -141 -126 l-29 -57 0 -2895 0 -2895 23
-47 c30 -61 66 -96 127 -124 l50 -24 2430 1 c1980 0 2437 2 2467 13 57 21 114
72 142 128 l26 52 0 1963 0 1963 -25 0 c-14 0 -25 4 -25 9 0 4 98 104 218 221
119 116 353 347 519 513 l302 300 -146 149 c-81 81 -150 147 -154 146 -7 -3
-203 -195 -1534 -1512 -1230 -1217 -1469 -1452 -1608 -1589 l-128 -126 73 -73
c41 -40 109 -108 151 -152 l77 -78 362 358 c199 198 562 557 806 799 500 496
573 566 584 559 10 -7 10 -3095 0 -3112 -7 -10 -435 -12 -2108 -10 l-2099 3 0
2565 0 2565 2099 3 c1673 2 2101 0 2108 -10 4 -7 8 -138 8 -291 l0 -278 -502
-497 c-277 -273 -701 -693 -943 -932 -242 -240 -570 -565 -730 -723 l-290
-286 150 -150 150 -150 210 207 c116 114 586 578 1045 1032 999 988 1465 1448
1780 1758 l235 232 -151 150 -150 151 -133 -130 c-73 -72 -136 -131 -142 -131
-5 0 -9 78 -9 188 0 182 -1 190 -26 240 -28 56 -85 107 -142 128 -49 17 -4879
19 -4927 2z"/>
<path d="M1235 5101 c-45 -11 -69 -26 -103 -65 -81 -92 -33 -244 88 -276 26
-7 465 -9 1352 -8 1474 3 1346 -4 1404 79 24 35 29 52 29 100 -1 50 -5 64 -31
96 -17 21 -46 47 -65 58 -33 20 -53 20 -1339 22 -718 0 -1318 -2 -1335 -6z"/>
<path d="M1191 4082 c-19 -9 -48 -34 -65 -55 -27 -34 -31 -47 -31 -101 0 -53
4 -68 28 -99 16 -21 46 -46 67 -57 38 -19 60 -20 827 -20 l789 0 44 23 c54 26
87 73 96 133 10 66 -30 142 -89 172 l-44 22 -794 0 c-736 0 -796 -1 -828 -18z"/>
<path d="M2131 2462 c-34 -88 -91 -234 -196 -502 -31 -80 -77 -197 -102 -260
-24 -63 -58 -148 -74 -189 -16 -41 -27 -76 -25 -78 2 -2 32 7 67 21 73 28 274
104 534 202 99 37 214 80 255 96 41 16 117 44 169 63 51 19 96 36 99 39 5 6
-677 696 -687 696 -3 0 -21 -39 -40 -88z"/>
</g>
</svg>
